# xmcd
#
# Track frame offsets:
#	150
#	10785
#	20556
#	31313
#	44613
#	55533
#	65326
#	76969
#	88167
#	98256
#	113097
#	126514
#	136553
#	149759
#	160675
#	171000
#	181583
#	192471
#	205230
#	215079
#	225762
#	237118
#	247297
#	260316
#	270287
#	281583
#	293946
#
# Disc length: 4079
#
# Revision: 1
# Processed by: cddbd v1.5.1PL0 Copyright (c) Steve Scherf et al.
# Submitted via: EasyCDDAExtractor 4.5.2.1
# Normalized: r0:TDELIM( - )
#
DISCID=740fed1b
DTITLE=Various Artist - Mercury Doo-Wop  Vol #3
DYEAR=1900
DGENRE=Blues
TTITLE0=Gainors - She's Gone
TTITLE1=Ivories - Me And You
TTITLE2=Medallionaires - Magic Moonlight
TTITLE3=Honeytones - Too Bad
TTITLE4=Miller Brothers - If I Had A car
TTITLE5=Four Plaid Throats - My Inspiration
TTITLE6=Juniors (Jimmy Castor and the) - I Promise
TTITLE7=Gainors - Please Consider
TTITLE8=Marie Knight - Grasshopper Baby
TTITLE9=Paul and Dale - She Belongs To Me
TTITLE10=Honeytones - Somewhere,Sometime, Someday
TTITLE11=Littlebeats - Love Is True
TTITLE12=Red Caps - I'll Never Love Anyone Else
TTITLE13=Joyce Taylor - This Is It
TTITLE14=Gainors - I'm Still In Love With You
TTITLE15=Marie Knight - As Long As I Love
TTITLE16=Honeytones - False Alarm
TTITLE17=Ivories - I'm In Love
TTITLE18=Marie Knight - Tell Me Why
TTITLE19=Four Plaid Throats - The Message
TTITLE20=Gainors - Nothing Means More
TTITLE21=Littlebeats - Someone For Me
TTITLE22=Marie Knight - Look At Me
TTITLE23=Major Lance - I've Got A Girl
TTITLE24=Miller Brothers - Try
TTITLE25=Honeytones - Honeybun Cha-Cha
TTITLE26=Juniors (Jimmy Castor and the) - I Know The Meaning Of Love
EXTD=
EXTT0=
EXTT1=
EXTT2=
EXTT3=
EXTT4=
EXTT5=
EXTT6=
EXTT7=
EXTT8=
EXTT9=
EXTT10=
EXTT11=
EXTT12=
EXTT13=
EXTT14=
EXTT15=
EXTT16=
EXTT17=
EXTT18=
EXTT19=
EXTT20=
EXTT21=
EXTT22=
EXTT23=
EXTT24=
EXTT25=
EXTT26=
PLAYORDER=
